<?xml version="1.0" encoding="UTF-8"?>
<svg version="1.1" xmlns="http://www.w3.org/2000/svg" width="275" height="152" >
<path fill="#231F20" d="M28.422,43.986c11.788-0.337,25.221-1.154,36.582,2.4c3.197,1,3.689,2.755,1.646,5.531 c-2.35,3.193-10.258,2.449-13.701,2.776C47.2,55.24,41.43,56.037,35.721,56.907c-1.633,0.249-4.438,0.478-5.55,1.984 c-3.453,4.678,4.952,5.568,7.505,5.628c6.621,0.154,13.244-0.512,19.858-0.268c5.804,0.215,6.012,4.593,1.927,7.561 c-8.614,6.258-21.548,3.849-31.477,5.808c-5.087,1.003-4.502,5.767-4.1,9.933c0.452,4.664,5.72,8.938,9.649,4.68 c5.761-6.243,3.989-18.527,4.168-26.34c0.299-13.005,1.661-26.217,5.784-38.62c0.364-1.096,0.78-2.284,1.502-3.2 c-0.461,0.586,0.012,1.357,0.223,2.413c0.806,4.043,0.704,8.339,0.719,12.442c0.08,22.708-4.03,44.836-5.931,67.355 c-0.459,5.441-0.702,10.946-0.336,16.4c0.13,1.946,0.075,5.443,1.78,6.835c4.25,3.47,7.451-17.707,7.624-18.71 c4.258-24.673,4.916-49.804,9.165-74.473c0.813-4.725,1.329-11.631,4.464-15.553c0.657-0.822,2.371,5.831,2.549,6.814 c2.41,13.271,1.32,26.893,0.559,40.249c-0.572,10.031-0.444,20.053-0.512,30.094c-0.091,13.516-1.412,26.967-3.021,40.375 c-0.125,1.033,1.819,0.762,1.961-0.131c0.274-1.72,2.81-16.101-1.686-13.894c-2.726,1.339-3.927,6.038-5.175,8.509 c-3.402,6.733-9.735,11.146-17.582,10.103c-9.689-1.289-9.541-20.154-9.626-26.859c-0.064-4.961,0.211-9.93,0.657-14.869 c0.145-1.6,0.323-3.197,0.528-4.79c0.193-1.498,0.913-2.335-0.333-1.931c-0.389-0.209-0.777-0.418-1.166-0.627 c0.308,5.356-0.51,10.748-0.06,16.163c0.686,8.268,2.978,18.085,9.472,23.834c15.409,13.639,25.262-15.454,27.96-26.043 c1.301-5.105,1.974-11.81,7.322-14.409c2.38-1.156,5.898-0.323,7.45,1.788c2.224,3.026,2.394,7.21,1.015,10.585 c-3.187,7.796-15.003,9.795-22.303,9.903c-4.974,0.073-9.756-1.388-14.685-1.688c-3.943-0.241-8.245,0.878-12.177,1.224 c-5.393,0.475-10.891,0.803-16.287,0.229c-4.004-0.425-8.042-1.52-11.842,0.346c-4.295,2.109-4.817,8.23-1.136,10.952 c6.511,4.814,18.493,2.776,26.096,2.849c11.099,0.106,22.2,0.269,33.299,0.165c3.883-0.037,7.773-0.104,11.648-0.373 c1.969-0.137,3.916-0.44,5.859-0.772c1.185-0.203,5.028-1.653,4.387-0.36c-1.216,2.452-4.511,5.262-2.848,8.188 c1.336,2.349,7.083,1.259,8.956,1.047c6.636-0.749,13.26-1.606,19.894-2.375c23.454-2.717,47.057-5.32,70.683-5.722 c12.574-0.215,25.215,1.333,37.77,0.511c11.652-0.764,23.478-4.858,34.491-8.518c6.126-2.035,11.16-5.961,12.02-12.679 c1.3-10.148-7.448-16.146-16.503-16.898c-0.978-0.081-1.961,1.349-0.654,1.457c9.948,0.827,18.168,8.651,14.37,19.052 c-2.629,7.199-12.723,8.681-19.026,10.453c-10.263,2.887-19.866,5.812-30.61,5.863c-11.181,0.055-22.327-0.874-33.52-0.684 c-23.396,0.398-46.806,3.137-70.028,5.827c-6.346,0.734-12.683,1.557-19.031,2.273c-2.682,0.303-8.912,1.043-6.437-3.885 c0.785-1.563,2.163-2.868,2.708-4.562c0.487-1.515-1.541-1.452-2.433-1.29c-19.562,3.549-39.907,1.925-59.713,1.766 c-5.607-0.045-25.882,1.614-21.123-9.071c2.332-5.235,11.308-1.96,15.656-1.842c5.675,0.154,11.338-0.263,16.981-0.831 c3.949-0.398,7.556-1.076,11.515-0.457c5.443,0.851,10.66,1.559,16.179,1.016c8.309-0.817,19.483-5.123,20.687-14.57 c0.55-4.313-1.56-9.146-5.828-10.461c-5.602-1.725-9.951,2.12-12.225,6.9c-1.835,3.86-2.277,8.437-3.433,12.525 c-1.269,4.49-2.939,8.863-4.975,13.059c-1.827,3.764-4.176,7.419-7.509,10.011c-4.896,3.807-10.016-0.041-13.231-3.973 c-5.287-6.466-6.685-15.74-7.128-23.814c-0.235-4.278,0.535-8.604,0.291-12.839c-0.033-0.581-0.655-0.793-1.166-0.627 c-1.411,0.457-1.243,3.312-1.384,4.451c-0.569,4.605-0.87,9.246-1.012,13.883c-0.286,9.323-0.58,21.519,5.233,29.41 c5.831,7.915,18.578,2.416,23.353-3.826c1.429-1.868,2.472-4.034,3.475-6.148c0.389-0.82,2.663-5.031,2.744-4.767 c1.096,3.561-0.206,8.634-0.782,12.244c0.653-0.044,1.308-0.087,1.961-0.131c2.317-19.301,2.779-38.253,3.067-57.634 c0.227-15.271,2.077-30.385,0.844-45.659c-0.188-2.328-0.741-17.908-6.08-15.538c-2.631,1.168-3.389,6.123-4.001,8.483 c-2.414,9.308-3.459,19.028-4.559,28.557c-2.543,22.045-3.143,44.907-8.887,66.46c-0.453,1.697-0.977,3.438-1.829,4.984 c-0.559,1.014-0.312,0.076,0.08,0.489c-0.342-0.361-0.469-0.927-0.6-1.388c-1.134-3.978-0.865-8.518-0.765-12.599 c0.165-6.775,0.879-13.538,1.844-20.242c1.928-13.39,3.364-26.812,4.108-40.321c0.493-8.96,1.074-18.289-0.209-27.212 c-0.343-2.382-2.132-5.887-4.307-2.508c-1.742,2.706-2.365,6.403-3.159,9.45c-1.822,6.999-2.877,14.178-3.494,21.376 c-0.908,10.601,0.81,22.315-2.059,32.636c-0.725,2.609-3,6.352-6.108,4.256c-1.977-1.333-2.318-4.321-2.434-6.457 c-0.194-3.586-0.239-5.874,3.803-6.518c9.906-1.576,20.424-0.503,29.669-5.093c3.104-1.54,7.845-6.542,3.897-9.737 c-2.504-2.026-7.707-1.256-10.621-1.18c-6.149,0.161-13.685,1.527-19.633-0.466c-1.444-0.483-1.862-2.428-0.476-3.159 c1.489-0.785,3.596-0.847,5.205-1.074c6.416-0.907,12.855-1.75,19.313-2.284c5.173-0.428,11.913-0.501,13.139-6.873 c1.561-8.114-36.14-6.571-41.402-6.421C27.458,42.546,27.109,44.023,28.422,43.986L28.422,43.986 M244.635,120.139c-15.225,0.779-30.448,1.609-45.667,2.512c-17.158,1.018-35.554,0.6-51.395,8.101 c-3.376,1.599-17.498,6.305-11.175,10.976c4.068,3.005,10.251,3.238,15.055,3.556c24.605,1.623,49.247-4.071,73.624-6.435 c13.98-1.355,27.995-1.936,42.038-1.736c0.366,0.006,2.189-0.71,1.27-0.723c-20.792-0.296-41.443,1.345-62.059,3.986 c-14.186,1.817-28.28,3.942-42.601,4.343c-7.299,0.204-15.255,0.317-22.276-2.014c-2.188-0.727-6.757-2.848-4.286-5.469 c3.223-3.418,9.436-5.412,13.72-7.332c9.856-4.417,21.065-4.862,31.68-5.58c18.972-1.283,37.964-2.271,56.952-3.263 c1.283-0.066,2.566-0.133,3.85-0.199C243.725,120.844,245.537,120.092,244.635,120.139L244.635,120.139 M248.269,30.562c-1.727,14.131-3.79,28.234-6.223,42.26c-1.608,9.274-3.407,18.527-6.101,27.555 c-3.093,10.364-4.286,21.229-5.975,31.879c-0.47,2.96-0.622,7.182-2.397,9.717c0.356-0.509-1.64-3.493-2.232-4.697 c-2.551-5.19-3.271-10.967-3.2-16.691c0.292-23.764,14.094-44.933,12.566-68.889c-0.471-7.388-2.429-14.526-3.793-21.771 c-1.561-8.291-1.043-16.144,2.016-24.041c0.321-0.831-0.83-1.028-1.369-0.744c-2.499,1.315-4.093,4.405-5.3,6.793 c-4.848,9.589-5.573,20.974-6.771,31.449c-2.857,24.979-6.11,49.764-9.858,74.61c-1.512,10.022-0.16,28.808,14.372,27.182 c10.283-1.151,14.939-14.977,17.517-23.091c7.203-22.688,8.273-47.188,12.538-70.539c1.454-7.964,4.149-16.529,2.217-24.629 c-0.631-2.642-4.274-16.564-9.665-12.327c-3.547,2.788-3.518,11.116-4.087,15.067c-2.729,18.91-4.601,38.046-8.794,56.71 c-2.09,9.299-5.041,18.265-6.682,27.696c-1.248,7.177-3.032,15.365-2.263,22.698c0.099,0.945,2.034,0.462,1.932-0.518 c-0.956-9.108,1.675-19.536,3.424-28.389c1.909-9.659,5.151-18.945,6.997-28.625c3.503-18.36,5.252-36.99,8.216-55.434 c0.427-2.651,0.729-5.628,2.241-7.918c1.591-2.41,5.431,7.134,5.398,7.047c0.633,1.705,1.123,3.479,1.523,5.255 c0.723,3.208,0.529,6.407,0.069,9.637c-2.599,18.262-6.331,36.347-8.825,54.646c-1.544,11.326-3.647,22.731-7.502,33.521 c-1.998,5.595-4.689,11.676-9.396,15.529c-2.409,1.972-5.438,2.717-8.44,1.857c-8.908-2.55-9.759-13.145-9.324-20.837 c0.6-10.623,3.445-21.35,4.847-31.914c1.678-12.652,3.043-25.346,4.458-38.03c1.348-12.076,1.971-24.634,5.966-36.196 c1.073-3.104,3.084-8.456,6.071-10.029c-0.457-0.248-0.913-0.496-1.369-0.744c-2.92,7.54-3.617,15.057-2.397,23.027 c1.31,8.555,3.79,16.769,4.198,25.47c1.104,23.574-12.789,44.754-12.701,68.368c0.009,2.359,3.076,23.817,8.449,20.628 c1.404-0.833,1.726-3.017,2.087-4.45c1.133-4.495,1.644-9.18,2.334-13.757c1.59-10.532,4.006-20.626,6.629-30.926 c5.278-20.731,7.972-42.327,10.563-63.539C250.358,29.401,248.382,29.634,248.269,30.562L248.269,30.562 M206.132,41.174c7.58,0.71,15.26-1.518,22.771-2.019c5.826-0.388,11.86,0.098,17.528,1.506 c4.003,0.994,9.495,3.783,4.493,7.747c-4.366,3.46-11.331,4.308-16.654,5.147c-4.62,0.729-9.257,0.721-13.882,1.266 c-6.904,0.813-16.617,2.156-21.689,7.487c-4.569,4.804,5.756,6.187,8.189,6.338c4.822,0.3,9.703-0.037,14.518-0.307 c7.344-0.411,15.323-1.976,22.612-0.634c9.278,1.709-2.23,9.952-5.877,11.011c-7.399,2.149-14.971,3.331-22.16,6.227 c-4.906,1.976-11.14,5.288-11.197,11.315c-0.024,2.563,0.521,7.6,3.584,8.605c1.308,0.43,2.789-0.028,3.764,0.06 c0.452,0.042,2.235-0.757,1.236-0.848c-2.487-0.227-3.952,0.554-5.453-2.19c-2.323-4.248-1.457-9.314,1.964-12.492 c6.472-6.015,17.494-7.363,25.783-9.319c4.771-1.126,9.218-3.013,12.486-6.823c4.553-5.308-3.257-6.659-7.131-6.808 c-11.891-0.453-23.786,2.467-35.696,1.112c-2.687-0.306-7.423-1.812-4.861-5.35c3.219-4.444,12.37-5.52,17.327-6.3 c9.246-1.454,18.35-1.283,27.434-4.065c3.098-0.948,13.337-4.86,8.551-9.417c-5.059-4.816-16.389-4.328-22.722-4.178 c-7.886,0.188-15.766,2.821-23.682,2.08C206.916,40.283,205.133,41.081,206.132,41.174L206.132,41.174 M76.169,25.727c3.169-0.403,5.517,0.698,5.533,4.014c0.016,3.384,0.244,6.764,0.26,10.149 c0.054,11.098-2.321,21.467-4.318,32.296c-2.722,14.765-2.705,30.433-1.625,45.383c0.075,1.036,2.024,0.746,1.96-0.137 c-1.263-17.482-0.861-35.541,3.197-52.633c2.583-10.877,2.966-21.985,2.545-33.104c-0.076-1.999,0.607-4.859-0.895-6.388 c-1.468-1.495-4.626-1.272-6.498-1.034C75.248,24.411,74.857,25.894,76.169,25.727L76.169,25.727 M90.854,102.74c-2.601,4.396,3.974,4.414,6.547,3.429c7.41-2.838,10.25-13.087,9.419-20.246 c-0.495-4.264-4.804-7.921-8.858-5.26c-1.904,1.249-2.516,4.798-2.944,6.804c-0.771,3.611,1.396,6.283,4.887,7.044 c6.346,1.383,13.403,0.742,19.786-0.033c3.668-0.445,12.281-1.203,13.972-5.444c1.514-3.797-3.249-5.87-6.233-5.213 c-4.512,0.993-7.907,5.922-9.848,9.726c-1.464,2.87-3.142,7.616-1.033,10.616c2.756,3.92,8.714,2.579,12.575,1.551 c1.156-0.308,0.907-1.233-0.248-0.926c-4.198,1.117-10.384,2.006-11.252-3.639c-0.562-3.651,1.594-7.699,3.52-10.61 c1.713-2.592,5.935-7.818,9.347-5.033c5.524,4.51-4.803,6.981-7.668,7.511c-5.256,0.973-10.685,1.198-16.019,1.06 c-2.333-0.061-4.614-0.246-6.849-0.943c-4.501-1.405-3.079-6.463-1.892-9.63c1.43-3.816,4.475-2.602,6.054,0.342 c1.652,3.077,0.883,7.073,0.169,10.283c-0.839,3.772-2.491,7.585-5.479,10.129c-1.277,1.087-8.641,2.696-6.161-1.496 C93.099,101.995,91.163,102.216,90.854,102.74L90.854,102.74 M105.466,31.241c-0.889-1.856-2.462-3.192-4.56-2.301c-2.574,1.094-2.506,4.453-1.261,6.47 c1.39,2.253,4.84,2.99,7.103,1.701c3.169-1.805,0.646-4.697-1.479-6.08c-0.531-0.346-2.318,0.43-1.537,0.938 c1.121,0.729,3.695,2.704,2.242,4.27c-1.298,1.398-3.762-0.5-4.535-1.585c-0.906-1.271-0.99-3.126-0.16-4.438 c0.736-1.162,1.915,0.832,2.255,1.543C103.856,32.431,105.742,31.817,105.466,31.241 M91.034,43.009c0.169,2.551,0.74,8.802,4.088,9.342c2.56,0.412,4.332-1.298,6.294-2.719 c2.184-1.582,4.399-3.144,6.691-4.565c-0.524-0.02-1.049-0.038-1.573-0.058c0.085,3.714,1.605,13.215,6.37,6.778 c0.544-0.734-1.413-0.608-1.808-0.074c-1.772,2.394-2.143-2.071-2.337-3.433c-0.178-1.251-0.264-2.526-0.293-3.789 c-0.014-0.616-1.345-0.199-1.573-0.058c-2.305,1.431-9.523,8.033-11.509,6.197c-1.917-1.771-2.254-5.677-2.417-8.14 C92.921,41.813,90.982,42.229,91.034,43.009L91.034,43.009 M118.108,50.146c2.658,3.297,7.105,4.543,11.165,4.521c4.835-0.028,13.818-2.866,14.577-8.563 c0.471-3.536-4.596-4.472-6.919-3.12c-1.45,0.844-2.646,2.129-3.443,3.608c-2.506,4.652-1.712,11.349-1.573,16.368 c0.478,17.205,2.177,34.405,3.62,51.548c0.062,0.733,2,0.298,1.932-0.518c-1.165-13.844-2.338-27.692-3.16-41.562 c-0.4-6.75-0.904-13.634-0.287-20.387c0.225-2.464,0.695-4.994,2.371-6.904c1.084-1.235,2.732-1.908,4.292-1.064 c5.527,2.991-5.39,8.177-7.141,8.748c-4.574,1.492-10.514,0.418-13.648-3.469C119.423,48.772,117.568,49.478,118.108,50.146 L118.108,50.146 M128.652,33.153c9.528,1.188,18.697-1.153,28.184-1.072c7.527,0.064,15.09,0.715,22.566,1.572 c0.884,0.102,2.001-1.157,0.695-1.307c-7.098-0.813-14.242-1.359-21.384-1.551c-9.876-0.264-19.472,2.284-29.366,1.051 C128.463,31.736,127.348,32.99,128.652,33.153L128.652,33.153 M154.905,41.402c-2.003-1.061-4.429-1.107-6.46-0.105c-2.9,1.431-4.427,6.604-2.271,9.181 c1.752,2.095,5.42,1.429,7.419,0.138c3.288-2.124,2.996-5.994,1.373-9.124c-0.286-0.552-2.14,0.116-1.932,0.518 c1.233,2.379,1.967,5.382,0.054,7.618c-1.301,1.521-3.519,1.676-4.976,0.292c-1.992-1.894-0.77-6.004,0.807-7.727 c1.097-1.198,3.155-0.635,4.176-0.095C153.628,42.38,155.255,41.587,154.905,41.402 M166.466,55.991c-0.615-4.131-0.643-8.809,1.196-12.634c2.727-5.67,8.573,0.816,11.962,2.184 c3.985,1.608,10.624,2.072,14.526,0.052c2.113-1.096,3.283-2.936,1.459-4.956c-4.817-5.338-13.74,3.888-15.144,8.191 c-2.785,8.542,5.732,12.016,11.922,8.103c1.106-0.699-0.496-1.354-1.275-0.861c-4.176,2.64-7.877,0.992-8.927-3.879 c-1.125-5.222,3.834-9.146,7.918-11.095c1.581-0.755,2.934-0.504,4.065,0.75c2.216,2.456-3.354,3.249-4.742,3.389 c-5.027,0.506-9.478-0.786-13.452-3.763c-3.278-2.454-6.704-2.653-9.549,0.726c-3.003,3.567-2.533,10.002-1.892,14.312 C164.665,57.388,166.602,56.904,166.466,55.991L166.466,55.991 M160.992,70.759c5.487,2.928,11.287,0.291,13.668-5.197c0.409-0.941-1.53-0.793-1.82-0.123 c-1.273,2.935-3.277,5.387-6.715,5.274c-1.218-0.04-2.537-0.396-3.617-0.972C161.868,69.4,160.118,70.292,160.992,70.759 L160.992,70.759 M145.863,72.415c1.744,2.644,0.354,8.809-0.004,11.714c-0.608,4.933-1.584,9.864-2.825,14.676 c-0.153,0.594-1.108,2.383-0.699,3.002c0.369,0.56,1.324,0.171,1.688-0.157c1.2-1.084,5.188-0.447,6.815-0.641 c4.297-0.509,9.001-1.577,12.748-3.823c2.697-1.617,5.339-4.109,4.27-7.551c-0.486-1.565-2.143-1.493-3.395-1.035 c-4.23,1.544-7.621,8.416-7.831,12.597c-0.384,7.65,11.431,2.726,14.538,1.335c1.213-0.542,0.127-1.494-0.836-1.063 c-3.876,1.733-13.228,5.414-11.475-2.373c0.274-1.216,5.134-11,6.845-9.322c2.871,2.816-2.986,6.437-4.83,7.303 c-3.539,1.665-7.638,2.402-11.501,2.772c-2.669,0.256-4.827-0.632-6.95,1.286c0.563-0.053,1.125-0.105,1.688-0.158 c0.101,0.152,1.465-4.734,1.638-5.491c1.156-5.056,2.017-10.207,2.477-15.373c0.202-2.276,0.816-6.401-0.587-8.527 C147.184,70.896,145.331,71.609,145.863,72.415L145.863,72.415 M183.086,92.554c-2.154-0.133-4.66,0.405-6.236,1.957c-2.279,2.244-2.008,6.775,1.057,8.151 c2.598,1.166,6.07-0.094,7.964-1.998c2.849-2.862,0.28-6.197-2.375-7.968c-0.702-0.469-2.401,0.5-1.49,1.107 c1.94,1.294,4.37,3.675,2.486,6.038c-1.213,1.521-3.652,2.247-5.467,1.528c-2.255-0.893-2.178-4.845-0.586-6.273 c0.691-0.62,1.629-0.922,2.532-1.058c0.383-0.059,0.771-0.085,1.158-0.095c0.369-0.011,0.046-0.014,0.285,0.002 C183.346,94.004,184.395,92.635,183.086,92.554 M166.371,80.634c3.558-0.037,7.116-0.046,10.674-0.035c3.816,0.011,9.667-0.945,13.294,0.477 c0.529,0.207,1.984-0.587,1.822-0.65c-3.37-1.321-8.362-0.555-11.891-0.584c-4.214-0.034-8.428-0.02-12.642,0.025 C167.239,79.87,165.436,80.644,166.371,80.634L166.371,80.634z"/>
</svg>